<svg xmlns="http://www.w3.org/2000/svg" xmlns:xlink="http://www.w3.org/1999/xlink" version="1.1" x="0px" y="0px" viewBox="0 0 100 100" enable-background="new 0 0 100 100" xml:space="preserve"><g><path fill="#000000" d="M96.863,81.328l-0.287-0.643L88.728,61.56c-0.94-1.92-1.532-3.4-3.921-3.4h-7.911v-2.773   c2.653-1.664,4.423-4.606,4.423-7.971c0-3.362-1.77-6.304-4.423-7.969V22.539c0-2.828-2.304-5.127-5.135-5.127H10.385   c-2.832,0-5.136,2.299-5.136,5.127v42.789c0,2.829,2.304,5.129,5.136,5.129h46.902v19.939h29.24l8.513-4.264   C96.863,85.316,97.683,83.153,96.863,81.328z M74.493,38.373c-0.823-0.235-1.689-0.369-2.588-0.369   c-5.196,0-9.411,4.214-9.411,9.411c0,5.201,4.215,9.413,9.411,9.413c0.898,0,1.764-0.134,2.588-0.369v1.7H61.43l-10.288-5.84   l-3.983-9.653c-0.573-1.687-2.279-2.676-3.985-2.42l-7.637-13.43c-0.327-0.578-1.061-0.778-1.639-0.451   c-0.577,0.327-0.779,1.062-0.451,1.639l7.469,13.133c-1.246,0.912-1.835,2.553-1.311,4.088l3.23,10.625l12.239,12.202H10.385   c-1.507,0-2.732-1.223-2.732-2.726V22.539c0-1.501,1.225-2.723,2.732-2.723h61.377c1.506,0,2.731,1.222,2.731,2.723V38.373z"></path><g><path fill="#000000" d="M29.608,42.853H14.338c-0.664,0-1.202-0.538-1.202-1.202V26.337c0-0.664,0.538-1.202,1.202-1.202h15.271    c0.664,0,1.202,0.538,1.202,1.202v15.314C30.81,42.316,30.272,42.853,29.608,42.853z"></path></g><g><path fill="#000000" d="M35.758,49.123H14.338c-0.943,0-1.706-0.764-1.706-1.707s0.764-1.707,1.706-1.707h21.421    c0.943,0,1.706,0.764,1.706,1.707S36.701,49.123,35.758,49.123z"></path></g><g><path fill="#000000" d="M25.223,56.428H14.338c-0.943,0-1.707-0.764-1.707-1.707c0-0.943,0.764-1.707,1.707-1.707h10.886    c0.943,0,1.707,0.764,1.707,1.707C26.93,55.664,26.166,56.428,25.223,56.428z"></path></g></g></svg>