<svg xmlns:dc="http://purl.org/dc/elements/1.1/" xmlns:sodipodi="http://sodipodi.sourceforge.net/DTD/sodipodi-0.dtd" xmlns:inkscape="http://www.inkscape.org/namespaces/inkscape" xmlns:rdf="http://www.w3.org/1999/02/22-rdf-syntax-ns#" xmlns:svg="http://www.w3.org/2000/svg" xmlns:cc="http://creativecommons.org/ns#" xmlns:v="http://schemas.microsoft.com/visio/2003/SVGExtensions/" xmlns="http://www.w3.org/2000/svg" xmlns:xlink="http://www.w3.org/1999/xlink" version="1.1" x="0px" y="0px" viewBox="0 0 100 100" enable-background="new 0 0 100 100" xml:space="preserve"><v:documentProperties v:viewMarkup="false" v:langID="1033"><v:userDefs><v:ud v:nameU="msvNoAutoConnect" v:val="VT0(0):26"></v:ud></v:userDefs></v:documentProperties><path d="M24.518,29c0.236,0,0.472-0.09,0.652-0.271c0.36-0.36,0.36-0.946,0-1.304l-2.723-2.724c-0.361-0.36-0.944-0.36-1.304,0  c-0.361,0.36-0.361,0.945,0,1.304l2.723,2.725C24.046,28.91,24.282,29,24.518,29z M81.824,24.701c-0.359-0.36-0.941-0.36-1.303,0  l-2.727,2.725c-0.358,0.359-0.358,0.944,0,1.304C77.976,28.91,78.213,29,78.447,29c0.238,0,0.473-0.09,0.655-0.271l2.723-2.723  C82.185,25.646,82.185,25.06,81.824,24.701z M35.706,17.866c0.129,0.387,0.489,0.631,0.875,0.631c0.096,0,0.194-0.015,0.292-0.048  c0.482-0.161,0.744-0.683,0.583-1.166l-1.361-4.086c-0.161-0.484-0.683-0.743-1.167-0.584c-0.482,0.162-0.745,0.684-0.583,1.167  L35.706,17.866z M66.092,17.401c0.098,0.032,0.194,0.048,0.292,0.048c0.385,0,0.747-0.244,0.877-0.631l1.36-4.085  c0.161-0.484-0.101-1.006-0.584-1.167c-0.484-0.163-1.006,0.1-1.165,0.583l-1.361,4.085C65.349,16.718,65.607,17.241,66.092,17.401z   M51.474,14.483c0.101,0,0.2-0.015,0.292-0.045c0.365-0.121,0.631-0.466,0.633-0.874l0.014-4.306c0.001-0.51-0.41-0.924-0.918-0.925  c-0.512-0.003-0.927,0.41-0.927,0.919l-0.015,4.306C50.552,14.069,50.963,14.483,51.474,14.483z M59.84,70.628v1.521  c0,0.447-0.361,0.804-0.807,0.804h-14.58c-0.445,0-0.805-0.356-0.805-0.804v-1.521c0-0.445,0.36-0.807,0.805-0.807h14.58  C59.479,69.821,59.841,70.183,59.84,70.628z M45.733,74.91h12.02C56.766,76.726,54.446,78,51.744,78  C49.04,78,46.721,76.726,45.733,74.91z M51.744,22.648c-12.277,0-22.228,9.634-22.228,21.909c0,7.529,7.783,16.293,7.783,16.293  c0.93,1.047,1.938,1.596,2.237,2.967l0.591,1.753c0.298,1.37,1.69,2.254,3.091,2.254h16.571c1.401,0,2.831-0.875,3.179-2.231  l0.656-1.622c0.346-1.36,1.396-1.894,2.339-2.933c0,0,8.008-8.845,8.008-16.481C73.971,32.282,64.019,22.648,51.744,22.648z   M63.881,31.576c-3.146-3.192-7.356-4.442-6.976-4.663c1.353-0.78,5.479,0.799,8.187,3.779c2.978,3.273,5.405,8.016,3.945,8.147  C68.754,38.865,67.133,34.875,63.881,31.576z M59.583,49.959c-0.033,0.063-3.382,6.151-3.116,11.583  c0.016,0.333-0.242,0.615-0.575,0.633c-0.011,0.001-0.021,0.001-0.03,0.001c-0.32,0-0.587-0.252-0.602-0.575  c-0.223-4.562,1.849-9.375,2.805-11.332h-2.192c-0.287,0-0.533-0.204-0.59-0.481l-0.838,1.848c-0.116,0.252-0.39,0.396-0.66,0.345  c-0.271-0.05-0.476-0.278-0.493-0.556l-0.067-1.065l-0.589,1.487c-0.108,0.269-0.387,0.43-0.677,0.37  c-0.283-0.054-0.488-0.302-0.488-0.593V50.5l-0.547,1.237c-0.113,0.257-0.394,0.405-0.666,0.349  c-0.276-0.053-0.479-0.291-0.489-0.572l-0.065-1.877l-0.25,0.368c-0.112,0.165-0.299,0.266-0.5,0.266h-2.106  c2.303,4.229,2.665,10.965,2.68,11.272c0.016,0.334-0.239,0.616-0.572,0.634c-0.331,0.035-0.618-0.239-0.634-0.574  c-0.005-0.075-0.42-7.8-3.047-11.591c-0.129-0.186-0.144-0.426-0.039-0.625c0.104-0.199,0.309-0.322,0.535-0.322h2.862l1.107-1.639  c0.147-0.217,0.417-0.314,0.668-0.242c0.252,0.072,0.429,0.297,0.438,0.559l0.038,1.095l0.639-1.449  c0.114-0.26,0.395-0.405,0.678-0.349c0.279,0.06,0.479,0.307,0.479,0.593v0.833l0.418-1.056c0.104-0.262,0.381-0.416,0.656-0.374  c0.278,0.046,0.491,0.276,0.509,0.56l0.083,1.338l0.702-1.55c0.111-0.246,0.375-0.384,0.639-0.348  c0.267,0.039,0.476,0.25,0.51,0.517l0.207,1.514h2.656c0.214,0,0.411,0.113,0.52,0.298C59.686,49.544,59.688,49.773,59.583,49.959z   M34.844,74.706l0.613,0.5c0.18,0.146,0.206,0.407,0.06,0.587l-4.785,5.876c-0.146,0.179-0.409,0.205-0.587,0.061L29.53,81.23  c-0.18-0.146-0.207-0.41-0.06-0.589l4.785-5.876C34.4,74.587,34.665,74.56,34.844,74.706z M31.939,81.797l3.945-4.845  c0.408,0.995,0.16,2.346-0.728,3.436C34.271,81.478,32.995,81.993,31.939,81.797z M12.854,62.221  c-4.029,4.947-3.414,12.118,1.533,16.147c3.034,2.47,9.12,2.212,9.12,2.212c0.727-0.032,1.279-0.258,1.929,0.071l0.9,0.337  c0.65,0.331,1.463,0.06,1.924-0.505l5.438-6.678c0.459-0.565,0.576-1.428,0.143-2.013l-0.438-0.797  c-0.435-0.586-0.305-1.185-0.414-1.905c0,0-0.936-6.129-4.013-8.636C24.03,56.427,16.883,57.274,12.854,62.221z M25.842,61.59  c-1.938-1.29-4.212-1.481-4.043-1.633c0.606-0.542,2.873-0.173,4.565,1.057c1.861,1.352,3.599,3.506,2.869,3.728  C29.093,64.784,27.846,62.925,25.842,61.59z M26.432,68.024c0.014,0.034,1.367,3.382,3.644,5.06  c0.139,0.103,0.168,0.298,0.066,0.439c-0.002,0.003-0.006,0.009-0.009,0.012c-0.104,0.129-0.294,0.152-0.43,0.054  c-1.911-1.406-3.17-3.822-3.645-4.85l-0.72,0.884c-0.095,0.115-0.257,0.147-0.388,0.08l0.47,0.944  c0.063,0.129,0.031,0.287-0.078,0.379c-0.109,0.093-0.269,0.1-0.386,0.017l-0.451-0.322l0.405,0.725  c0.074,0.132,0.046,0.296-0.073,0.394c-0.115,0.097-0.282,0.098-0.399,0.004l-0.453-0.37l0.319,0.626  c0.067,0.13,0.035,0.292-0.078,0.384c-0.112,0.094-0.275,0.098-0.391,0.009l-0.778-0.59l0.066,0.221  c0.03,0.1,0.009,0.208-0.057,0.289l-0.691,0.848c2.461,0.462,5.293,2.525,5.422,2.621c0.14,0.104,0.169,0.299,0.067,0.438  c-0.095,0.145-0.299,0.17-0.439,0.066c-0.032-0.023-3.28-2.391-5.67-2.576c-0.117-0.011-0.219-0.083-0.265-0.189  c-0.046-0.108-0.028-0.23,0.045-0.322l0.94-1.152l-0.297-0.983c-0.039-0.131,0.009-0.271,0.121-0.35s0.261-0.074,0.369,0.008  l0.453,0.343l-0.374-0.732c-0.067-0.132-0.033-0.292,0.082-0.387c0.116-0.093,0.282-0.093,0.396,0.001l0.336,0.273l-0.289-0.516  c-0.07-0.128-0.042-0.289,0.064-0.386c0.111-0.099,0.273-0.108,0.393-0.021l0.567,0.403l-0.395-0.791  c-0.062-0.125-0.031-0.275,0.069-0.371c0.104-0.094,0.258-0.109,0.376-0.036l0.678,0.414l0.871-1.07  c0.071-0.086,0.181-0.128,0.291-0.112C26.298,67.848,26.391,67.922,26.432,68.024z M71.565,80.686l-0.345,0.499  c-0.102,0.147-0.302,0.183-0.447,0.082l-4.797-3.303c-0.146-0.101-0.183-0.301-0.083-0.446l0.346-0.501  c0.101-0.146,0.301-0.183,0.446-0.082l4.797,3.302C71.628,80.337,71.667,80.538,71.565,80.686z M65.955,78.896l3.952,2.724  c-0.735,0.375-1.786,0.268-2.676-0.344C66.342,80.664,65.868,79.718,65.955,78.896z M81.271,63.567  c-4.037-2.78-9.493-1.867-12.275,2.171c-1.705,2.478-1.131,7.124-1.131,7.124c0.069,0.555,0.276,0.963,0.063,1.481l-0.202,0.711  c-0.213,0.519,0.045,1.125,0.506,1.443l5.45,3.753c0.462,0.318,1.131,0.354,1.553-0.015l0.583-0.385  c0.422-0.368,0.888-0.306,1.435-0.435c0,0,4.637-1.095,6.367-3.607C86.401,71.772,85.31,66.349,81.271,63.567z M81.883,66.683  c-1.036-1.46-2.615-2.223-2.452-2.285c0.584-0.221,2.109,0.666,2.986,2.014c0.963,1.483,1.618,3.507,1.033,3.466  C83.337,69.868,82.953,68.191,81.883,66.683z M77.663,74.327c-0.024,0.014-2.506,1.257-3.649,3.105  c-0.07,0.112-0.219,0.147-0.333,0.077c-0.003-0.001-0.007-0.004-0.011-0.005c-0.104-0.074-0.135-0.218-0.067-0.327  c0.961-1.551,2.733-2.665,3.491-3.092l-0.722-0.496c-0.094-0.065-0.129-0.188-0.086-0.293l-0.693,0.419  c-0.095,0.057-0.218,0.041-0.295-0.036c-0.078-0.078-0.094-0.2-0.036-0.296l0.219-0.364l-0.53,0.355  c-0.097,0.064-0.226,0.052-0.307-0.032c-0.081-0.081-0.093-0.21-0.027-0.306l0.256-0.369l-0.46,0.282  c-0.097,0.06-0.221,0.044-0.299-0.036c-0.078-0.079-0.091-0.204-0.032-0.299l0.405-0.633l-0.165,0.065  c-0.075,0.029-0.159,0.019-0.227-0.026l-0.691-0.478c-0.201,1.914-1.607,4.211-1.672,4.314c-0.07,0.114-0.219,0.149-0.332,0.08  c-0.117-0.065-0.149-0.219-0.079-0.333c0.016-0.025,1.629-2.66,1.625-4.504c0-0.09,0.048-0.172,0.128-0.214  c0.08-0.041,0.175-0.035,0.25,0.016l0.94,0.647L75,71.265c0.098-0.04,0.207-0.011,0.273,0.069c0.066,0.081,0.074,0.195,0.018,0.283  l-0.235,0.369l0.538-0.331c0.099-0.062,0.221-0.044,0.301,0.038c0.079,0.083,0.089,0.209,0.024,0.304l-0.189,0.273l0.378-0.252  c0.094-0.063,0.22-0.051,0.3,0.024c0.082,0.079,0.101,0.202,0.041,0.3l-0.275,0.458l0.582-0.351c0.093-0.055,0.209-0.04,0.289,0.03  c0.079,0.074,0.1,0.19,0.052,0.286l-0.276,0.546l0.873,0.601c0.071,0.048,0.11,0.13,0.104,0.216S77.74,74.29,77.663,74.327z   M90.516,58.496c-0.316-0.316-0.828-0.316-1.146,0l-2.398,2.397c-0.314,0.315-0.314,0.83,0,1.146  c0.159,0.16,0.367,0.239,0.573,0.239c0.21,0,0.416-0.079,0.577-0.239l2.396-2.395C90.833,59.327,90.833,58.813,90.516,58.496z   M79.947,58.452c0.088,0,0.176-0.013,0.257-0.04c0.321-0.105,0.555-0.409,0.557-0.768l0.012-3.787  c0.001-0.449-0.36-0.813-0.808-0.814c-0.45-0.003-0.814,0.36-0.814,0.809l-0.014,3.787C79.137,58.087,79.498,58.451,79.947,58.452z   M94.106,69.098c-0.068-0.442-0.482-0.743-0.926-0.676l-3.35,0.522c-0.44,0.069-0.744,0.484-0.676,0.926  c0.034,0.223,0.156,0.41,0.322,0.531c0.17,0.123,0.383,0.181,0.606,0.146l3.346-0.522C93.872,69.956,94.177,69.54,94.106,69.098z   M12.01,58.791c0.208,0.045,0.433,0.012,0.627-0.114c0.386-0.247,0.498-0.765,0.25-1.148l-1.88-2.924  c-0.249-0.384-0.764-0.497-1.149-0.248c-0.387,0.249-0.499,0.765-0.249,1.149l1.879,2.922C11.611,58.622,11.802,58.746,12.01,58.791  z M20.281,55.893c0.091,0,0.181-0.013,0.264-0.041c0.329-0.109,0.569-0.419,0.571-0.787l0.012-3.885  c0.001-0.46-0.37-0.834-0.828-0.834c-0.461-0.003-0.836,0.37-0.836,0.829l-0.013,3.885C19.45,55.519,19.821,55.893,20.281,55.893z   M8.567,65.335c0.176-0.121,0.306-0.308,0.348-0.534c0.086-0.451-0.212-0.888-0.663-0.972l-3.414-0.646  c-0.452-0.085-0.887,0.212-0.972,0.662c-0.085,0.453,0.211,0.888,0.662,0.972l3.415,0.646C8.17,65.507,8.391,65.454,8.567,65.335z"></path></svg>