<svg xmlns="http://www.w3.org/2000/svg" xmlns:xlink="http://www.w3.org/1999/xlink" version="1.1" x="0px" y="0px" viewBox="0 0 64 64" style="enable-background:new 0 0 64 64;" xml:space="preserve"><style type="text/css">
	.st0{display:none;}
	.st1{display:inline;}
	.st2{fill:none;stroke:#B3B3B3;stroke-width:0.1;stroke-miterlimit:10;}
</style><g class="st0"><g class="st1"><rect x="2" y="2" class="st2" width="60" height="60"></rect><line class="st2" x1="32" y1="2" x2="32" y2="62"></line><line class="st2" x1="62" y1="32" x2="2" y2="32"></line><line class="st2" x1="2" y1="2" x2="62" y2="62"></line><rect x="10" y="10" class="st2" width="44" height="44"></rect><line class="st2" x1="62" y1="2" x2="2" y2="62"></line><line class="st2" x1="2" y1="32" x2="32" y2="2"></line><line class="st2" x1="32" y1="2" x2="62" y2="32"></line><line class="st2" x1="62" y1="32" x2="32" y2="62"></line><line class="st2" x1="32" y1="62" x2="2" y2="32"></line><circle class="st2" cx="32" cy="32" r="21"></circle></g></g><path d="M5,49c-0.3,0-0.7,0-1-0.1V62h2V48.9C5.7,49,5.3,49,5,49z"></path><path d="M12,43c-0.3,0-0.7,0-1-0.1V62h2V42.9C12.7,43,12.3,43,12,43z"></path><path d="M19,52c-0.3,0-0.7,0-1-0.1V62h2V51.9C19.7,52,19.3,52,19,52z"></path><path d="M27,42c-0.3,0-0.7,0-1-0.1V62h2V41.9C27.7,42,27.3,42,27,42z"></path><path d="M35,48c-0.3,0-0.7,0-1-0.1V62h2V47.9C35.7,48,35.3,48,35,48z"></path><path d="M43,39c-0.3,0-0.7,0-1-0.1V62h2V38.9C43.7,39,43.3,39,43,39z"></path><path d="M52,46c-0.3,0-0.7,0-1-0.1V62h2V45.9C52.7,46,52.3,46,52,46z"></path><path d="M59,42c-0.3,0-0.7,0-1-0.1V62h2V41.9C59.7,42,59.3,42,59,42z"></path><path d="M9,34v-0.5L19,26v2.5l-6.1,4.6c0.8,0.1,1.5,0.5,2.1,0.9l4-3v2.5l-2.7,2c0.4,0.6,0.6,1.3,0.6,2l2-1.5v6l0,0  c0.1,0,0.1,0,0.2,0l1.8-2.3V11H7v27C7,37.7,7.7,35.4,9,34z M9,13h4l-4,3V13z M9,18.5l7.3-5.5H19v0.5L9,21V18.5z M9,23.5L19,16v2.5  L9,26V23.5z M9,28.5L19,21v2.5L9,31V28.5z"></path><path d="M59,34c-1.7,0-3,1.3-3,3c0,0.1,0,0.3,0,0.4l-2.1,1.3C53.4,38.3,52.7,38,52,38c-0.6,0-1.1,0.2-1.6,0.5L45.8,35  c0.1-0.3,0.2-0.6,0.2-0.9c0-1.7-1.3-3-3-3s-3,1.3-3,3c0,0.5,0.1,1,0.4,1.4l-4.3,4.8C35.8,40.1,35.4,40,35,40c-0.6,0-1.2,0.2-1.7,0.5  l-3.5-2.6c0.1-0.3,0.1-0.6,0.1-0.9c0-1.7-1.3-3-3-3s-3,1.3-3,3c0,0.6,0.2,1.1,0.5,1.6L20,44.2c-0.3-0.1-0.6-0.2-1-0.2  c-0.3,0-0.6,0.1-0.9,0.2l-3.5-4.6c0.3-0.5,0.5-1,0.5-1.6c0-1.7-1.3-3-3-3s-3,1.3-3,3c0,0.4,0.1,0.7,0.2,1l-2.8,2.3  C6,41.1,5.5,41,5,41c-1.7,0-3,1.3-3,3s1.3,3,3,3s3-1.3,3-3c0-0.4-0.1-0.8-0.2-1.2l2.7-2.3c0.4,0.3,1,0.4,1.5,0.4  c0.3,0,0.6-0.1,0.9-0.2l3.5,4.6c-0.3,0.5-0.5,1-0.5,1.6c0,1.7,1.3,3,3,3s3-1.3,3-3c0-0.6-0.2-1.1-0.5-1.6l4.5-5.6  c0.3,0.1,0.6,0.2,1,0.2c0.6,0,1.2-0.2,1.7-0.5l3.5,2.6c0,0.4-0.1,0.7-0.1,1c0,1.7,1.3,3,3,3s3-1.3,3-3c0-0.5-0.1-1-0.4-1.4l4.3-4.8  c0.3,0.1,0.7,0.2,1.1,0.2c0.6,0,1.1-0.2,1.6-0.5l4.6,3.5c-0.1,0.4-0.2,0.7-0.2,1c0,1.7,1.3,3,3,3s3-1.3,3-3c0-0.2,0-0.4-0.1-0.6  l2-1.2c0.5,0.5,1.2,0.8,2,0.8c1.7,0,3-1.3,3-3S60.7,34,59,34z M5,45c-0.6,0-1-0.4-1-1s0.4-1,1-1s1,0.4,1,1S5.6,45,5,45z M11,38  c0-0.6,0.4-1,1-1s1,0.4,1,1s-0.4,1-1,1S11,38.6,11,38z M19,48c-0.6,0-1-0.4-1-1s0.4-1,1-1s1,0.4,1,1S19.6,48,19,48z M27,38  c-0.6,0-1-0.4-1-1s0.4-1,1-1s1,0.4,1,1S27.6,38,27,38z M35,44c-0.6,0-1-0.4-1-1s0.4-1,1-1s1,0.4,1,1S35.6,44,35,44z M43,35  c-0.6,0-1-0.4-1-1s0.4-1,1-1s1,0.4,1,1S43.6,35,43,35z M52,42c-0.6,0-1-0.4-1-1s0.4-1,1-1s1,0.4,1,1S52.6,42,52,42z M59,38  c-0.6,0-1-0.4-1-1s0.4-1,1-1s1,0.4,1,1S59.6,38,59,38z"></path><path d="M27,32c1.1,0,2.1,0.4,3,1h7v3.2l1.1-1.2c-0.6-2.2,0.8-3.8,0.9-4l0,0V19H25v13.4C25.6,32.2,26.3,32,27,32z M27,21h10v2H27V21  z M27,25h10v2H27V25z M27,29h10v2H27V29z"></path><path d="M45,27l9.8,7.3c0.5-0.8,1.3-1.5,2.2-1.9V2H43v27c0.7,0,1.4,0.2,2,0.4V27z M55,4v3l-4-3H55z M45,4h2.7L55,9.5V12L45,4.5V4z   M45,7l10,7.5V17L45,9.5V7z M45,12l10,7.5V22l-10-7.5V12z M45,17l10,7.5V27l-10-7.5V17z M45,22l10,7.5V32l-10-7.5V22z"></path></svg>